<svg width="124" height="23" viewBox="0 0 124 23" fill="none" xmlns="http://www.w3.org/2000/svg">
<path d="M116.978 18.1783C115.722 18.1783 114.61 17.9152 113.643 17.389C112.692 16.8459 111.946 16.0906 111.403 15.1232C110.876 14.1387 110.613 12.9846 110.613 11.6607V11.3552C110.613 10.0313 110.876 8.88566 111.403 7.91821C111.929 6.93379 112.667 6.1785 113.617 5.65234C114.568 5.10921 115.671 4.83765 116.927 4.83765C118.166 4.83765 119.244 5.1177 120.16 5.6778C121.077 6.22093 121.79 6.98471 122.299 7.96913C122.808 8.93658 123.063 10.0653 123.063 11.3552V12.4499H113.872C113.906 13.3156 114.228 14.0199 114.84 14.5631C115.451 15.1062 116.197 15.3778 117.08 15.3778C117.979 15.3778 118.641 15.1826 119.066 14.7922C119.49 14.4018 119.813 13.969 120.033 13.4938L122.655 14.8686C122.418 15.3099 122.07 15.7936 121.612 16.3197C121.17 16.8289 120.576 17.2702 119.83 17.6436C119.083 18.0001 118.132 18.1783 116.978 18.1783ZM113.898 10.0568H119.804C119.736 9.32695 119.439 8.74139 118.913 8.3001C118.404 7.85881 117.733 7.63816 116.902 7.63816C116.036 7.63816 115.349 7.85881 114.84 8.3001C114.33 8.74139 114.016 9.32695 113.898 10.0568Z" fill="#FAFAFA"/>
<path d="M94.378 11.5589V11.1515C94.378 9.82765 94.6411 8.69896 95.1672 7.76546C95.6934 6.81498 96.3893 6.09363 97.2549 5.60142C98.1375 5.09224 99.0964 4.83765 100.132 4.83765C101.286 4.83765 102.16 5.04132 102.754 5.44867C103.348 5.85602 103.781 6.28034 104.052 6.72163H104.511V5.19408H107.668V20.0623C107.668 20.9279 107.413 21.6153 106.904 22.1244C106.395 22.6506 105.716 22.9137 104.867 22.9137H96.4147V20.1132H103.747C104.222 20.1132 104.46 19.8586 104.46 19.3494V16.0652H104.002C103.832 16.3367 103.594 16.6168 103.289 16.9053C102.983 17.1769 102.576 17.406 102.067 17.5927C101.557 17.7794 100.913 17.8728 100.132 17.8728C99.0964 17.8728 98.1375 17.6267 97.2549 17.1344C96.3893 16.6253 95.6934 15.9039 95.1672 14.9704C94.6411 14.0199 94.378 12.8828 94.378 11.5589ZM101.048 15.0722C102.033 15.0722 102.856 14.7582 103.518 14.1303C104.18 13.5023 104.511 12.6197 104.511 11.4825V11.2279C104.511 10.0738 104.18 9.19117 103.518 8.58015C102.873 7.95216 102.05 7.63816 101.048 7.63816C100.064 7.63816 99.2407 7.95216 98.5788 8.58015C97.9168 9.19117 97.5858 10.0738 97.5858 11.2279V11.4825C97.5858 12.6197 97.9168 13.5023 98.5788 14.1303C99.2407 14.7582 100.064 15.0722 101.048 15.0722Z" fill="#FAFAFA"/>
<path d="M85.3425 17.8217V5.19398H88.4994V6.6197H88.9577C89.1444 6.11052 89.4499 5.73711 89.8742 5.4995C90.3155 5.26188 90.8247 5.14307 91.4018 5.14307H92.9293V7.9945H91.3509C90.5362 7.9945 89.8658 8.21514 89.3396 8.65644C88.8134 9.08076 88.5504 9.7427 88.5504 10.6423V17.8217H85.3425Z" fill="#FAFAFA"/>
<path d="M75.762 18.1783C74.506 18.1783 73.3773 17.9237 72.3759 17.4145C71.3745 16.9053 70.5853 16.167 70.0082 15.1995C69.4311 14.2321 69.1426 13.0695 69.1426 11.7116V11.3043C69.1426 9.94646 69.4311 8.78382 70.0082 7.81637C70.5853 6.84892 71.3745 6.11061 72.3759 5.60142C73.3773 5.09224 74.506 4.83765 75.762 4.83765C77.018 4.83765 78.1467 5.09224 79.148 5.60142C80.1494 6.11061 80.9387 6.84892 81.5158 7.81637C82.0928 8.78382 82.3814 9.94646 82.3814 11.3043V11.7116C82.3814 13.0695 82.0928 14.2321 81.5158 15.1995C80.9387 16.167 80.1494 16.9053 79.148 17.4145C78.1467 17.9237 77.018 18.1783 75.762 18.1783ZM75.762 15.3268C76.7464 15.3268 77.5611 15.0128 78.2061 14.3848C78.851 13.7399 79.1735 12.8233 79.1735 11.6353V11.3807C79.1735 10.1926 78.851 9.28452 78.2061 8.65653C77.5781 8.01156 76.7634 7.68908 75.762 7.68908C74.7775 7.68908 73.9629 8.01156 73.3179 8.65653C72.6729 9.28452 72.3504 10.1926 72.3504 11.3807V11.6353C72.3504 12.8233 72.6729 13.7399 73.3179 14.3848C73.9629 15.0128 74.7775 15.3268 75.762 15.3268Z" fill="#FAFAFA"/>
<path d="M46.9051 17.8214V0H50.1129V9.85271H50.5712L54.7465 5.19368H58.9218L53.0916 11.3039L59.1255 17.8214H55.0011L50.5712 12.806H50.1129V17.8214H46.9051Z" fill="#FAFAFA"/>
<path d="M61.8591 0.789236C61.3499 1.29842 61.0953 1.98582 61.0953 2.85143V8.77151L58.8214 11.3039L60.1256 12.806L64.5555 17.8214H68.6798L62.646 11.3039L68.4762 5.19368H64.3032V3.41153C64.3032 2.90235 64.5408 2.64776 65.016 2.64776H67.2055V0H63.8958C63.0642 0 62.3853 0.263079 61.8591 0.789236Z" fill="#F97316"/>
<path d="M37.9195 18.1783C36.6975 18.1783 35.5858 17.9237 34.5844 17.4145C33.6 16.9053 32.8192 16.167 32.2421 15.1995C31.6651 14.2321 31.3765 13.061 31.3765 11.6862V11.3297C31.3765 9.95495 31.6651 8.78382 32.2421 7.81637C32.8192 6.84892 33.6 6.11061 34.5844 5.60142C35.5858 5.09224 36.6975 4.83765 37.9195 4.83765C39.1246 4.83765 40.1599 5.04981 41.0256 5.47413C41.8912 5.89845 42.5871 6.48401 43.1132 7.23081C43.6563 7.96064 44.0128 8.79231 44.1825 9.72581L41.0765 10.3878C41.0086 9.87857 40.8558 9.4203 40.6182 9.01296C40.3806 8.60561 40.0411 8.28313 39.5998 8.04551C39.1755 7.80789 38.6409 7.68908 37.9959 7.68908C37.351 7.68908 36.7654 7.83335 36.2392 8.12188C35.73 8.39345 35.3227 8.80928 35.0172 9.36938C34.7287 9.91251 34.5844 10.5829 34.5844 11.3807V11.6353C34.5844 12.433 34.7287 13.1119 35.0172 13.672C35.3227 14.2151 35.73 14.631 36.2392 14.9195C36.7654 15.1911 37.351 15.3268 37.9959 15.3268C38.9634 15.3268 39.6932 15.0807 40.1854 14.5885C40.6946 14.0793 41.0171 13.4174 41.1529 12.6027L44.2589 13.341C44.0382 14.2406 43.6563 15.0638 43.1132 15.8106C42.5871 16.5404 41.8912 17.1175 41.0256 17.5418C40.1599 17.9661 39.1246 18.1783 37.9195 18.1783Z" fill="#FAFAFA"/>
<path d="M21.4383 18.1783C20.5387 18.1783 19.7325 18.0255 19.0197 17.72C18.3068 17.3975 17.7382 16.9393 17.3139 16.3452C16.9066 15.7342 16.7029 14.9959 16.7029 14.1303C16.7029 13.2646 16.9066 12.5433 17.3139 11.9662C17.7382 11.3722 18.3153 10.9309 19.0451 10.6423C19.7919 10.3368 20.6406 10.1841 21.591 10.1841H25.0535V9.47122C25.0535 8.87717 24.8668 8.39345 24.4934 8.02005C24.12 7.62967 23.5259 7.43449 22.7113 7.43449C21.9135 7.43449 21.3195 7.62119 20.9291 7.99459C20.5387 8.35102 20.2841 8.81777 20.1653 9.39484L17.2121 8.40194C17.4157 7.75697 17.7382 7.17141 18.1795 6.64525C18.6378 6.10212 19.2403 5.66931 19.9871 5.34683C20.7509 5.00737 21.6759 4.83765 22.7622 4.83765C24.4255 4.83765 25.7409 5.25348 26.7083 6.08515C27.6758 6.91681 28.1595 8.12188 28.1595 9.70035V14.4103C28.1595 14.9195 28.3971 15.1741 28.8724 15.1741H29.8907V17.8218H27.7522C27.1242 17.8218 26.6065 17.6691 26.1992 17.3636C25.7918 17.0581 25.5881 16.6507 25.5881 16.1415V16.1161H25.1044C25.0365 16.3197 24.8838 16.5913 24.6462 16.9308C24.4085 17.2532 24.0351 17.5418 23.5259 17.7964C23.0168 18.051 22.3209 18.1783 21.4383 18.1783ZM21.9984 15.5814C22.898 15.5814 23.6278 15.3353 24.1879 14.8431C24.765 14.3339 25.0535 13.6635 25.0535 12.8318V12.5772H21.8202C21.2261 12.5772 20.7594 12.7045 20.4199 12.9591C20.0805 13.2137 19.9107 13.5702 19.9107 14.0284C19.9107 14.4867 20.089 14.8601 20.4454 15.1486C20.8018 15.4372 21.3195 15.5814 21.9984 15.5814Z" fill="#FAFAFA"/>
<path d="M0 17.8214V14.8682H2.34225V2.95327H0V0H9.16531C10.2516 0 11.1936 0.186701 11.9913 0.560103C12.806 0.916532 13.434 1.4342 13.8753 2.11311C14.3335 2.77505 14.5627 3.57278 14.5627 4.50628V4.76087C14.5627 5.57557 14.4099 6.24599 14.1044 6.77215C13.7989 7.28133 13.434 7.68019 13.0097 7.96873C12.6023 8.2403 12.2119 8.43548 11.8385 8.55429V9.01256C12.2119 9.11439 12.6193 9.30958 13.0606 9.59812C13.5019 9.86968 13.8753 10.2685 14.1808 10.7947C14.5033 11.3209 14.6645 12.0083 14.6645 12.8569V13.1115C14.6645 14.0959 14.4354 14.9446 13.9771 15.6574C13.5188 16.3533 12.8824 16.8879 12.0677 17.2613C11.2699 17.6347 10.3364 17.8214 9.26715 17.8214H0ZM5.70286 14.7663H8.8598C9.58963 14.7663 10.1752 14.5881 10.6165 14.2317C11.0748 13.8753 11.3039 13.3661 11.3039 12.7041V12.4495C11.3039 11.7876 11.0832 11.2784 10.6419 10.922C10.2007 10.5656 9.60661 10.3874 8.8598 10.3874H5.70286V14.7663ZM5.70286 7.33225H8.80888C9.50477 7.33225 10.0734 7.15404 10.5147 6.79761C10.9729 6.44118 11.202 5.94897 11.202 5.32097V5.06638C11.202 4.42141 10.9814 3.9292 10.5401 3.58975C10.0988 3.23332 9.52174 3.0551 8.80888 3.0551H5.70286V7.33225Z" fill="#FAFAFA"/>
</svg>
